<svg xmlns="http://www.w3.org/2000/svg" width="1500" height="560" viewBox="0 0 1500 560">
<rect width="100%" height="100%" fill="white"/>
<style>text{font-family:Segoe UI,Arial,sans-serif;fill:#263238}.tick{font-size:13px}.xlabel{font-size:12px}.legend{font-size:13px}.title{font-size:21px;font-weight:600}.axis{font-size:14px}</style>
<text class="title" x="750.0" y="30" text-anchor="middle">全周期小时平均收益分解</text>
<line x1="100" y1="438.00" x2="1472" y2="438.00" stroke="#d9dfe5"/>
<text class="tick" x="90" y="442.00" text-anchor="end">-10</text>
<line x1="100" y1="401.60" x2="1472" y2="401.60" stroke="#d9dfe5"/>
<text class="tick" x="90" y="405.60" text-anchor="end">0</text>
<line x1="100" y1="365.20" x2="1472" y2="365.20" stroke="#d9dfe5"/>
<text class="tick" x="90" y="369.20" text-anchor="end">10</text>
<line x1="100" y1="328.80" x2="1472" y2="328.80" stroke="#d9dfe5"/>
<text class="tick" x="90" y="332.80" text-anchor="end">20</text>
<line x1="100" y1="292.40" x2="1472" y2="292.40" stroke="#d9dfe5"/>
<text class="tick" x="90" y="296.40" text-anchor="end">30</text>
<line x1="100" y1="256.00" x2="1472" y2="256.00" stroke="#d9dfe5"/>
<text class="tick" x="90" y="260.00" text-anchor="end">40</text>
<line x1="100" y1="219.60" x2="1472" y2="219.60" stroke="#d9dfe5"/>
<text class="tick" x="90" y="223.60" text-anchor="end">50</text>
<line x1="100" y1="183.20" x2="1472" y2="183.20" stroke="#d9dfe5"/>
<text class="tick" x="90" y="187.20" text-anchor="end">60</text>
<line x1="100" y1="146.80" x2="1472" y2="146.80" stroke="#d9dfe5"/>
<text class="tick" x="90" y="150.80" text-anchor="end">70</text>
<line x1="100" y1="110.40" x2="1472" y2="110.40" stroke="#d9dfe5"/>
<text class="tick" x="90" y="114.40" text-anchor="end">80</text>
<line x1="100" y1="74.00" x2="1472" y2="74.00" stroke="#d9dfe5"/>
<text class="tick" x="90" y="78.00" text-anchor="end">90</text>
<line x1="100" y1="401.60" x2="1472" y2="401.60" stroke="#37474f" stroke-width="1.4"/>
<text class="axis" x="20" y="256.0" text-anchor="middle" transform="rotate(-90 20 256.0)">平均收益（kEUR/MW × 10⁻³）</text>
<rect x="108.00" y="328.80" width="41.16" height="72.80" fill="#4472C4"/>
<rect x="108.00" y="401.60" width="41.16" height="36.40" fill="#ED7D31"/>
<rect x="108.00" y="292.40" width="41.16" height="36.40" fill="#70AD47"/>
<rect x="108.00" y="256.00" width="41.16" height="36.40" fill="#A5A5A5"/>
<rect x="108.00" y="219.60" width="41.16" height="36.40" fill="#FFC000"/>
<text class="xlabel" x="128.58" y="461" text-anchor="middle">0</text>
<rect x="165.17" y="365.20" width="41.16" height="36.40" fill="#4472C4"/>
<rect x="165.17" y="328.80" width="41.16" height="36.40" fill="#70AD47"/>
<rect x="165.17" y="292.40" width="41.16" height="36.40" fill="#A5A5A5"/>
<rect x="165.17" y="256.00" width="41.16" height="36.40" fill="#FFC000"/>
<text class="xlabel" x="185.75" y="461" text-anchor="middle">1</text>
<rect x="222.34" y="365.20" width="41.16" height="36.40" fill="#4472C4"/>
<rect x="222.34" y="328.80" width="41.16" height="36.40" fill="#70AD47"/>
<rect x="222.34" y="292.40" width="41.16" height="36.40" fill="#A5A5A5"/>
<rect x="222.34" y="256.00" width="41.16" height="36.40" fill="#FFC000"/>
<text class="xlabel" x="242.92" y="461" text-anchor="middle">2</text>
<rect x="279.50" y="365.20" width="41.16" height="36.40" fill="#4472C4"/>
<rect x="279.50" y="328.80" width="41.16" height="36.40" fill="#70AD47"/>
<rect x="279.50" y="292.40" width="41.16" height="36.40" fill="#A5A5A5"/>
<rect x="279.50" y="256.00" width="41.16" height="36.40" fill="#FFC000"/>
<text class="xlabel" x="300.08" y="461" text-anchor="middle">3</text>
<rect x="336.67" y="365.20" width="41.16" height="36.40" fill="#4472C4"/>
<rect x="336.67" y="328.80" width="41.16" height="36.40" fill="#70AD47"/>
<rect x="336.67" y="292.40" width="41.16" height="36.40" fill="#A5A5A5"/>
<text class="xlabel" x="357.25" y="461" text-anchor="middle">4</text>
<rect x="393.84" y="365.20" width="41.16" height="36.40" fill="#4472C4"/>
<rect x="393.84" y="401.60" width="41.16" height="36.40" fill="#ED7D31"/>
<rect x="393.84" y="328.80" width="41.16" height="36.40" fill="#70AD47"/>
<rect x="393.84" y="292.40" width="41.16" height="36.40" fill="#A5A5A5"/>
<text class="xlabel" x="414.42" y="461" text-anchor="middle">5</text>
<rect x="451.00" y="328.80" width="41.16" height="72.80" fill="#4472C4"/>
<rect x="451.00" y="401.60" width="41.16" height="36.40" fill="#ED7D31"/>
<rect x="451.00" y="292.40" width="41.16" height="36.40" fill="#70AD47"/>
<rect x="451.00" y="256.00" width="41.16" height="36.40" fill="#A5A5A5"/>
<rect x="451.00" y="219.60" width="41.16" height="36.40" fill="#FFC000"/>
<text class="xlabel" x="471.58" y="461" text-anchor="middle">6</text>
<rect x="508.17" y="328.80" width="41.16" height="72.80" fill="#4472C4"/>
<rect x="508.17" y="256.00" width="41.16" height="72.80" fill="#70AD47"/>
<rect x="508.17" y="183.20" width="41.16" height="72.80" fill="#A5A5A5"/>
<rect x="508.17" y="146.80" width="41.16" height="36.40" fill="#FFC000"/>
<text class="xlabel" x="528.75" y="461" text-anchor="middle">7</text>
<rect x="565.34" y="328.80" width="41.16" height="72.80" fill="#4472C4"/>
<rect x="565.34" y="219.60" width="41.16" height="109.20" fill="#70AD47"/>
<rect x="565.34" y="110.40" width="41.16" height="109.20" fill="#A5A5A5"/>
<rect x="565.34" y="74.00" width="41.16" height="36.40" fill="#FFC000"/>
<text class="xlabel" x="585.92" y="461" text-anchor="middle">8</text>
<rect x="622.50" y="365.20" width="41.16" height="36.40" fill="#4472C4"/>
<rect x="622.50" y="328.80" width="41.16" height="36.40" fill="#ED7D31"/>
<rect x="622.50" y="219.60" width="41.16" height="109.20" fill="#70AD47"/>
<rect x="622.50" y="183.20" width="41.16" height="36.40" fill="#A5A5A5"/>
<rect x="622.50" y="146.80" width="41.16" height="36.40" fill="#FFC000"/>
<text class="xlabel" x="643.08" y="461" text-anchor="middle">9</text>
<rect x="679.67" y="365.20" width="41.16" height="36.40" fill="#ED7D31"/>
<rect x="679.67" y="292.40" width="41.16" height="72.80" fill="#70AD47"/>
<rect x="679.67" y="256.00" width="41.16" height="36.40" fill="#FFC000"/>
<text class="xlabel" x="700.25" y="461" text-anchor="middle">10</text>
<rect x="736.84" y="401.60" width="41.16" height="36.40" fill="#4472C4"/>
<rect x="736.84" y="365.20" width="41.16" height="36.40" fill="#ED7D31"/>
<rect x="736.84" y="328.80" width="41.16" height="36.40" fill="#70AD47"/>
<rect x="736.84" y="292.40" width="41.16" height="36.40" fill="#FFC000"/>
<text class="xlabel" x="757.42" y="461" text-anchor="middle">11</text>
<rect x="794.00" y="401.60" width="41.16" height="36.40" fill="#4472C4"/>
<rect x="794.00" y="328.80" width="41.16" height="72.80" fill="#ED7D31"/>
<rect x="794.00" y="292.40" width="41.16" height="36.40" fill="#70AD47"/>
<text class="xlabel" x="814.58" y="461" text-anchor="middle">12</text>
<rect x="851.17" y="401.60" width="41.16" height="36.40" fill="#4472C4"/>
<rect x="851.17" y="365.20" width="41.16" height="36.40" fill="#ED7D31"/>
<rect x="851.17" y="328.80" width="41.16" height="36.40" fill="#70AD47"/>
<rect x="851.17" y="292.40" width="41.16" height="36.40" fill="#FFC000"/>
<text class="xlabel" x="871.75" y="461" text-anchor="middle">13</text>
<rect x="908.34" y="401.60" width="41.16" height="36.40" fill="#4472C4"/>
<rect x="908.34" y="365.20" width="41.16" height="36.40" fill="#ED7D31"/>
<rect x="908.34" y="328.80" width="41.16" height="36.40" fill="#70AD47"/>
<rect x="908.34" y="292.40" width="41.16" height="36.40" fill="#FFC000"/>
<text class="xlabel" x="928.92" y="461" text-anchor="middle">14</text>
<rect x="965.50" y="365.20" width="41.16" height="36.40" fill="#ED7D31"/>
<rect x="965.50" y="328.80" width="41.16" height="36.40" fill="#70AD47"/>
<rect x="965.50" y="292.40" width="41.16" height="36.40" fill="#FFC000"/>
<text class="xlabel" x="986.08" y="461" text-anchor="middle">15</text>
<rect x="1022.67" y="365.20" width="41.16" height="36.40" fill="#ED7D31"/>
<rect x="1022.67" y="292.40" width="41.16" height="72.80" fill="#70AD47"/>
<rect x="1022.67" y="256.00" width="41.16" height="36.40" fill="#A5A5A5"/>
<rect x="1022.67" y="219.60" width="41.16" height="36.40" fill="#FFC000"/>
<text class="xlabel" x="1043.25" y="461" text-anchor="middle">16</text>
<rect x="1079.84" y="365.20" width="41.16" height="36.40" fill="#ED7D31"/>
<rect x="1079.84" y="292.40" width="41.16" height="72.80" fill="#70AD47"/>
<rect x="1079.84" y="256.00" width="41.16" height="36.40" fill="#A5A5A5"/>
<rect x="1079.84" y="219.60" width="41.16" height="36.40" fill="#FFC000"/>
<text class="xlabel" x="1100.42" y="461" text-anchor="middle">17</text>
<rect x="1137.00" y="365.20" width="41.16" height="36.40" fill="#4472C4"/>
<rect x="1137.00" y="328.80" width="41.16" height="36.40" fill="#ED7D31"/>
<rect x="1137.00" y="256.00" width="41.16" height="72.80" fill="#70AD47"/>
<rect x="1137.00" y="219.60" width="41.16" height="36.40" fill="#A5A5A5"/>
<rect x="1137.00" y="183.20" width="41.16" height="36.40" fill="#FFC000"/>
<text class="xlabel" x="1157.58" y="461" text-anchor="middle">18</text>
<rect x="1194.17" y="292.40" width="41.16" height="109.20" fill="#4472C4"/>
<rect x="1194.17" y="256.00" width="41.16" height="36.40" fill="#ED7D31"/>
<rect x="1194.17" y="183.20" width="41.16" height="72.80" fill="#70AD47"/>
<rect x="1194.17" y="146.80" width="41.16" height="36.40" fill="#A5A5A5"/>
<rect x="1194.17" y="110.40" width="41.16" height="36.40" fill="#FFC000"/>
<text class="xlabel" x="1214.75" y="461" text-anchor="middle">19</text>
<rect x="1251.34" y="256.00" width="41.16" height="145.60" fill="#4472C4"/>
<rect x="1251.34" y="183.20" width="41.16" height="72.80" fill="#70AD47"/>
<rect x="1251.34" y="146.80" width="41.16" height="36.40" fill="#A5A5A5"/>
<rect x="1251.34" y="110.40" width="41.16" height="36.40" fill="#FFC000"/>
<text class="xlabel" x="1271.92" y="461" text-anchor="middle">20</text>
<rect x="1308.50" y="219.60" width="41.16" height="182.00" fill="#4472C4"/>
<rect x="1308.50" y="183.20" width="41.16" height="36.40" fill="#ED7D31"/>
<rect x="1308.50" y="146.80" width="41.16" height="36.40" fill="#70AD47"/>
<rect x="1308.50" y="110.40" width="41.16" height="36.40" fill="#FFC000"/>
<text class="xlabel" x="1329.08" y="461" text-anchor="middle">21</text>
<rect x="1365.67" y="256.00" width="41.16" height="145.60" fill="#4472C4"/>
<rect x="1365.67" y="219.60" width="41.16" height="36.40" fill="#70AD47"/>
<text class="xlabel" x="1386.25" y="461" text-anchor="middle">22</text>
<rect x="1422.84" y="292.40" width="41.16" height="109.20" fill="#4472C4"/>
<rect x="1422.84" y="401.60" width="41.16" height="36.40" fill="#ED7D31"/>
<rect x="1422.84" y="256.00" width="41.16" height="36.40" fill="#70AD47"/>
<rect x="1422.84" y="219.60" width="41.16" height="36.40" fill="#A5A5A5"/>
<text class="xlabel" x="1443.42" y="461" text-anchor="middle">23</text>
<rect x="100.0" y="514" width="14" height="14" fill="#4472C4"/>
<text class="legend" x="120.0" y="526">DA电能</text>
<rect x="328.7" y="514" width="14" height="14" fill="#ED7D31"/>
<text class="legend" x="348.7" y="526">ID电能</text>
<rect x="557.3" y="514" width="14" height="14" fill="#70AD47"/>
<text class="legend" x="577.3" y="526">aFRR容量上调</text>
<rect x="786.0" y="514" width="14" height="14" fill="#A5A5A5"/>
<text class="legend" x="806.0" y="526">aFRR容量下调</text>
<rect x="1014.7" y="514" width="14" height="14" fill="#FFC000"/>
<text class="legend" x="1034.7" y="526">aFRR激活上调</text>
<rect x="1243.3" y="514" width="14" height="14" fill="#8064A2"/>
<text class="legend" x="1263.3" y="526">aFRR激活下调</text>
</svg>