<svg xmlns="http://www.w3.org/2000/svg" width="1500" height="560" viewBox="0 0 1500 560">
<rect width="100%" height="100%" fill="white"/>
<style>text{font-family:Segoe UI,Arial,sans-serif;fill:#263238}.tick{font-size:13px}.xlabel{font-size:12px}.legend{font-size:13px}.title{font-size:21px;font-weight:600}.axis{font-size:14px}</style>
<text class="title" x="750.0" y="30" text-anchor="middle">全期小时平均市场现金收益</text>
<line x1="100" y1="438.00" x2="1472" y2="438.00" stroke="#d9dfe5"/>
<text class="tick" x="90" y="442.00" text-anchor="end">-20</text>
<line x1="100" y1="401.60" x2="1472" y2="401.60" stroke="#d9dfe5"/>
<text class="tick" x="90" y="405.60" text-anchor="end">0</text>
<line x1="100" y1="365.20" x2="1472" y2="365.20" stroke="#d9dfe5"/>
<text class="tick" x="90" y="369.20" text-anchor="end">20</text>
<line x1="100" y1="328.80" x2="1472" y2="328.80" stroke="#d9dfe5"/>
<text class="tick" x="90" y="332.80" text-anchor="end">40</text>
<line x1="100" y1="292.40" x2="1472" y2="292.40" stroke="#d9dfe5"/>
<text class="tick" x="90" y="296.40" text-anchor="end">60</text>
<line x1="100" y1="256.00" x2="1472" y2="256.00" stroke="#d9dfe5"/>
<text class="tick" x="90" y="260.00" text-anchor="end">80</text>
<line x1="100" y1="219.60" x2="1472" y2="219.60" stroke="#d9dfe5"/>
<text class="tick" x="90" y="223.60" text-anchor="end">100</text>
<line x1="100" y1="183.20" x2="1472" y2="183.20" stroke="#d9dfe5"/>
<text class="tick" x="90" y="187.20" text-anchor="end">120</text>
<line x1="100" y1="146.80" x2="1472" y2="146.80" stroke="#d9dfe5"/>
<text class="tick" x="90" y="150.80" text-anchor="end">140</text>
<line x1="100" y1="110.40" x2="1472" y2="110.40" stroke="#d9dfe5"/>
<text class="tick" x="90" y="114.40" text-anchor="end">160</text>
<line x1="100" y1="74.00" x2="1472" y2="74.00" stroke="#d9dfe5"/>
<text class="tick" x="90" y="78.00" text-anchor="end">180</text>
<line x1="100" y1="401.60" x2="1472" y2="401.60" stroke="#37474f" stroke-width="1.4"/>
<text class="axis" x="20" y="256.0" text-anchor="middle" transform="rotate(-90 20 256.0)">平均收益（kEUR/MW × 10⁻³）</text>
<rect x="108.00" y="369.83" width="41.16" height="31.77" fill="#4472C4"/>
<rect x="108.00" y="401.60" width="41.16" height="11.63" fill="#ED7D31"/>
<rect x="108.00" y="352.57" width="41.16" height="17.26" fill="#70AD47"/>
<rect x="108.00" y="335.41" width="41.16" height="17.15" fill="#A5A5A5"/>
<rect x="108.00" y="322.06" width="41.16" height="13.35" fill="#FFC000"/>
<rect x="108.00" y="413.23" width="41.16" height="1.41" fill="#8064A2"/>
<text class="xlabel" x="128.58" y="461" text-anchor="middle">0</text>
<rect x="165.17" y="378.16" width="41.16" height="23.44" fill="#4472C4"/>
<rect x="165.17" y="401.60" width="41.16" height="7.36" fill="#ED7D31"/>
<rect x="165.17" y="363.33" width="41.16" height="14.83" fill="#70AD47"/>
<rect x="165.17" y="345.22" width="41.16" height="18.11" fill="#A5A5A5"/>
<rect x="165.17" y="332.93" width="41.16" height="12.29" fill="#FFC000"/>
<rect x="165.17" y="408.96" width="41.16" height="2.15" fill="#8064A2"/>
<text class="xlabel" x="185.75" y="461" text-anchor="middle">1</text>
<rect x="222.34" y="385.43" width="41.16" height="16.17" fill="#4472C4"/>
<rect x="222.34" y="401.60" width="41.16" height="2.35" fill="#ED7D31"/>
<rect x="222.34" y="370.75" width="41.16" height="14.69" fill="#70AD47"/>
<rect x="222.34" y="348.04" width="41.16" height="22.71" fill="#A5A5A5"/>
<rect x="222.34" y="337.43" width="41.16" height="10.61" fill="#FFC000"/>
<rect x="222.34" y="403.95" width="41.16" height="1.72" fill="#8064A2"/>
<text class="xlabel" x="242.92" y="461" text-anchor="middle">2</text>
<rect x="279.50" y="388.08" width="41.16" height="13.52" fill="#4472C4"/>
<rect x="279.50" y="401.60" width="41.16" height="3.19" fill="#ED7D31"/>
<rect x="279.50" y="372.24" width="41.16" height="15.84" fill="#70AD47"/>
<rect x="279.50" y="347.04" width="41.16" height="25.19" fill="#A5A5A5"/>
<rect x="279.50" y="336.35" width="41.16" height="10.70" fill="#FFC000"/>
<rect x="279.50" y="404.79" width="41.16" height="1.38" fill="#8064A2"/>
<text class="xlabel" x="300.08" y="461" text-anchor="middle">3</text>
<rect x="336.67" y="389.77" width="41.16" height="11.83" fill="#4472C4"/>
<rect x="336.67" y="401.60" width="41.16" height="0.70" fill="#ED7D31"/>
<rect x="336.67" y="373.89" width="41.16" height="15.88" fill="#70AD47"/>
<rect x="336.67" y="347.15" width="41.16" height="26.74" fill="#A5A5A5"/>
<rect x="336.67" y="338.22" width="41.16" height="8.93" fill="#FFC000"/>
<rect x="336.67" y="401.81" width="41.16" height="1.90" fill="#8064A2"/>
<text class="xlabel" x="357.25" y="461" text-anchor="middle">4</text>
<rect x="393.84" y="376.17" width="41.16" height="25.43" fill="#4472C4"/>
<rect x="393.84" y="401.60" width="41.16" height="10.58" fill="#ED7D31"/>
<rect x="393.84" y="360.24" width="41.16" height="15.93" fill="#70AD47"/>
<rect x="393.84" y="334.61" width="41.16" height="25.64" fill="#A5A5A5"/>
<rect x="393.84" y="326.80" width="41.16" height="7.80" fill="#FFC000"/>
<rect x="393.84" y="412.18" width="41.16" height="1.78" fill="#8064A2"/>
<text class="xlabel" x="414.42" y="461" text-anchor="middle">5</text>
<rect x="451.00" y="362.22" width="41.16" height="39.38" fill="#4472C4"/>
<rect x="451.00" y="401.60" width="41.16" height="12.50" fill="#ED7D31"/>
<rect x="451.00" y="343.58" width="41.16" height="18.64" fill="#70AD47"/>
<rect x="451.00" y="316.96" width="41.16" height="26.62" fill="#A5A5A5"/>
<rect x="451.00" y="306.12" width="41.16" height="10.84" fill="#FFC000"/>
<rect x="451.00" y="414.10" width="41.16" height="1.01" fill="#8064A2"/>
<text class="xlabel" x="471.58" y="461" text-anchor="middle">6</text>
<rect x="508.17" y="369.07" width="41.16" height="32.53" fill="#4472C4"/>
<rect x="508.17" y="368.81" width="41.16" height="0.70" fill="#ED7D31"/>
<rect x="508.17" y="331.12" width="41.16" height="37.70" fill="#70AD47"/>
<rect x="508.17" y="290.29" width="41.16" height="40.83" fill="#A5A5A5"/>
<rect x="508.17" y="279.55" width="41.16" height="10.73" fill="#FFC000"/>
<rect x="508.17" y="401.60" width="41.16" height="1.26" fill="#8064A2"/>
<text class="xlabel" x="528.75" y="461" text-anchor="middle">7</text>
<rect x="565.34" y="373.47" width="41.16" height="28.13" fill="#4472C4"/>
<rect x="565.34" y="401.60" width="41.16" height="1.51" fill="#ED7D31"/>
<rect x="565.34" y="317.55" width="41.16" height="55.92" fill="#70AD47"/>
<rect x="565.34" y="268.48" width="41.16" height="49.06" fill="#A5A5A5"/>
<rect x="565.34" y="254.53" width="41.16" height="13.95" fill="#FFC000"/>
<rect x="565.34" y="253.59" width="41.16" height="0.94" fill="#8064A2"/>
<text class="xlabel" x="585.92" y="461" text-anchor="middle">8</text>
<rect x="622.50" y="390.54" width="41.16" height="11.06" fill="#4472C4"/>
<rect x="622.50" y="378.62" width="41.16" height="11.92" fill="#ED7D31"/>
<rect x="622.50" y="329.05" width="41.16" height="49.56" fill="#70AD47"/>
<rect x="622.50" y="304.09" width="41.16" height="24.96" fill="#A5A5A5"/>
<rect x="622.50" y="292.14" width="41.16" height="11.95" fill="#FFC000"/>
<rect x="622.50" y="287.11" width="41.16" height="5.03" fill="#8064A2"/>
<text class="xlabel" x="643.08" y="461" text-anchor="middle">9</text>
<rect x="679.67" y="401.60" width="41.16" height="0.84" fill="#4472C4"/>
<rect x="679.67" y="383.48" width="41.16" height="18.12" fill="#ED7D31"/>
<rect x="679.67" y="354.41" width="41.16" height="29.07" fill="#70AD47"/>
<rect x="679.67" y="346.04" width="41.16" height="8.37" fill="#A5A5A5"/>
<rect x="679.67" y="336.68" width="41.16" height="9.35" fill="#FFC000"/>
<rect x="679.67" y="332.64" width="41.16" height="4.04" fill="#8064A2"/>
<text class="xlabel" x="700.25" y="461" text-anchor="middle">10</text>
<rect x="736.84" y="401.60" width="41.16" height="10.79" fill="#4472C4"/>
<rect x="736.84" y="379.36" width="41.16" height="22.24" fill="#ED7D31"/>
<rect x="736.84" y="356.23" width="41.16" height="23.13" fill="#70AD47"/>
<rect x="736.84" y="352.41" width="41.16" height="3.82" fill="#A5A5A5"/>
<rect x="736.84" y="342.50" width="41.16" height="9.91" fill="#FFC000"/>
<rect x="736.84" y="339.51" width="41.16" height="2.99" fill="#8064A2"/>
<text class="xlabel" x="757.42" y="461" text-anchor="middle">11</text>
<rect x="794.00" y="401.60" width="41.16" height="10.79" fill="#4472C4"/>
<rect x="794.00" y="371.86" width="41.16" height="29.74" fill="#ED7D31"/>
<rect x="794.00" y="354.63" width="41.16" height="17.23" fill="#70AD47"/>
<rect x="794.00" y="352.87" width="41.16" height="1.75" fill="#A5A5A5"/>
<rect x="794.00" y="344.23" width="41.16" height="8.64" fill="#FFC000"/>
<rect x="794.00" y="343.06" width="41.16" height="1.17" fill="#8064A2"/>
<text class="xlabel" x="814.58" y="461" text-anchor="middle">12</text>
<rect x="851.17" y="401.60" width="41.16" height="12.65" fill="#4472C4"/>
<rect x="851.17" y="375.53" width="41.16" height="26.07" fill="#ED7D31"/>
<rect x="851.17" y="359.11" width="41.16" height="16.42" fill="#70AD47"/>
<rect x="851.17" y="357.55" width="41.16" height="1.57" fill="#A5A5A5"/>
<rect x="851.17" y="347.52" width="41.16" height="10.02" fill="#FFC000"/>
<rect x="851.17" y="346.21" width="41.16" height="1.31" fill="#8064A2"/>
<text class="xlabel" x="871.75" y="461" text-anchor="middle">13</text>
<rect x="908.34" y="401.60" width="41.16" height="13.04" fill="#4472C4"/>
<rect x="908.34" y="379.20" width="41.16" height="22.40" fill="#ED7D31"/>
<rect x="908.34" y="362.61" width="41.16" height="16.59" fill="#70AD47"/>
<rect x="908.34" y="360.91" width="41.16" height="1.70" fill="#A5A5A5"/>
<rect x="908.34" y="351.23" width="41.16" height="9.68" fill="#FFC000"/>
<rect x="908.34" y="346.96" width="41.16" height="4.27" fill="#8064A2"/>
<text class="xlabel" x="928.92" y="461" text-anchor="middle">14</text>
<rect x="965.50" y="401.60" width="41.16" height="8.78" fill="#4472C4"/>
<rect x="965.50" y="378.74" width="41.16" height="22.86" fill="#ED7D31"/>
<rect x="965.50" y="359.04" width="41.16" height="19.69" fill="#70AD47"/>
<rect x="965.50" y="355.79" width="41.16" height="3.25" fill="#A5A5A5"/>
<rect x="965.50" y="346.02" width="41.16" height="9.76" fill="#FFC000"/>
<rect x="965.50" y="342.46" width="41.16" height="3.56" fill="#8064A2"/>
<text class="xlabel" x="986.08" y="461" text-anchor="middle">15</text>
<rect x="1022.67" y="401.60" width="41.16" height="6.13" fill="#4472C4"/>
<rect x="1022.67" y="378.16" width="41.16" height="23.44" fill="#ED7D31"/>
<rect x="1022.67" y="350.61" width="41.16" height="27.55" fill="#70AD47"/>
<rect x="1022.67" y="340.72" width="41.16" height="9.90" fill="#A5A5A5"/>
<rect x="1022.67" y="328.51" width="41.16" height="12.21" fill="#FFC000"/>
<rect x="1022.67" y="325.96" width="41.16" height="2.55" fill="#8064A2"/>
<text class="xlabel" x="1043.25" y="461" text-anchor="middle">16</text>
<rect x="1079.84" y="400.02" width="41.16" height="1.58" fill="#4472C4"/>
<rect x="1079.84" y="379.49" width="41.16" height="20.53" fill="#ED7D31"/>
<rect x="1079.84" y="338.84" width="41.16" height="40.66" fill="#70AD47"/>
<rect x="1079.84" y="321.83" width="41.16" height="17.01" fill="#A5A5A5"/>
<rect x="1079.84" y="305.54" width="41.16" height="16.29" fill="#FFC000"/>
<rect x="1079.84" y="302.86" width="41.16" height="2.69" fill="#8064A2"/>
<text class="xlabel" x="1100.42" y="461" text-anchor="middle">17</text>
<rect x="1137.00" y="383.34" width="41.16" height="18.26" fill="#4472C4"/>
<rect x="1137.00" y="370.26" width="41.16" height="13.09" fill="#ED7D31"/>
<rect x="1137.00" y="336.98" width="41.16" height="33.28" fill="#70AD47"/>
<rect x="1137.00" y="324.57" width="41.16" height="12.41" fill="#A5A5A5"/>
<rect x="1137.00" y="305.61" width="41.16" height="18.96" fill="#FFC000"/>
<rect x="1137.00" y="302.33" width="41.16" height="3.28" fill="#8064A2"/>
<text class="xlabel" x="1157.58" y="461" text-anchor="middle">18</text>
<rect x="1194.17" y="352.33" width="41.16" height="49.27" fill="#4472C4"/>
<rect x="1194.17" y="340.17" width="41.16" height="12.16" fill="#ED7D31"/>
<rect x="1194.17" y="303.36" width="41.16" height="36.81" fill="#70AD47"/>
<rect x="1194.17" y="281.87" width="41.16" height="21.49" fill="#A5A5A5"/>
<rect x="1194.17" y="267.58" width="41.16" height="14.29" fill="#FFC000"/>
<rect x="1194.17" y="267.48" width="41.16" height="0.70" fill="#8064A2"/>
<text class="xlabel" x="1214.75" y="461" text-anchor="middle">19</text>
<rect x="1251.34" y="336.39" width="41.16" height="65.21" fill="#4472C4"/>
<rect x="1251.34" y="335.85" width="41.16" height="0.70" fill="#ED7D31"/>
<rect x="1251.34" y="303.63" width="41.16" height="32.22" fill="#70AD47"/>
<rect x="1251.34" y="291.37" width="41.16" height="12.26" fill="#A5A5A5"/>
<rect x="1251.34" y="274.20" width="41.16" height="17.18" fill="#FFC000"/>
<rect x="1251.34" y="401.60" width="41.16" height="2.04" fill="#8064A2"/>
<text class="xlabel" x="1271.92" y="461" text-anchor="middle">20</text>
<rect x="1308.50" y="318.56" width="41.16" height="83.04" fill="#4472C4"/>
<rect x="1308.50" y="296.83" width="41.16" height="21.73" fill="#ED7D31"/>
<rect x="1308.50" y="285.66" width="41.16" height="11.17" fill="#70AD47"/>
<rect x="1308.50" y="279.39" width="41.16" height="6.27" fill="#A5A5A5"/>
<rect x="1308.50" y="265.98" width="41.16" height="13.41" fill="#FFC000"/>
<rect x="1308.50" y="401.60" width="41.16" height="2.18" fill="#8064A2"/>
<text class="xlabel" x="1329.08" y="461" text-anchor="middle">21</text>
<rect x="1365.67" y="320.42" width="41.16" height="81.18" fill="#4472C4"/>
<rect x="1365.67" y="401.60" width="41.16" height="0.70" fill="#ED7D31"/>
<rect x="1365.67" y="310.94" width="41.16" height="9.49" fill="#70AD47"/>
<rect x="1365.67" y="302.66" width="41.16" height="8.27" fill="#A5A5A5"/>
<rect x="1365.67" y="293.95" width="41.16" height="8.71" fill="#FFC000"/>
<rect x="1365.67" y="401.71" width="41.16" height="3.76" fill="#8064A2"/>
<text class="xlabel" x="1386.25" y="461" text-anchor="middle">22</text>
<rect x="1422.84" y="342.53" width="41.16" height="59.07" fill="#4472C4"/>
<rect x="1422.84" y="401.60" width="41.16" height="23.99" fill="#ED7D31"/>
<rect x="1422.84" y="325.14" width="41.16" height="17.39" fill="#70AD47"/>
<rect x="1422.84" y="311.00" width="41.16" height="14.14" fill="#A5A5A5"/>
<rect x="1422.84" y="301.98" width="41.16" height="9.02" fill="#FFC000"/>
<rect x="1422.84" y="425.59" width="41.16" height="1.03" fill="#8064A2"/>
<text class="xlabel" x="1443.42" y="461" text-anchor="middle">23</text>
<rect x="100.0" y="514" width="14" height="14" fill="#4472C4"/>
<text class="legend" x="120.0" y="526">DA电能</text>
<rect x="328.7" y="514" width="14" height="14" fill="#ED7D31"/>
<text class="legend" x="348.7" y="526">ID电能</text>
<rect x="557.3" y="514" width="14" height="14" fill="#70AD47"/>
<text class="legend" x="577.3" y="526">aFRR容量上调</text>
<rect x="786.0" y="514" width="14" height="14" fill="#A5A5A5"/>
<text class="legend" x="806.0" y="526">aFRR容量下调</text>
<rect x="1014.7" y="514" width="14" height="14" fill="#FFC000"/>
<text class="legend" x="1034.7" y="526">aFRR激活上调</text>
<rect x="1243.3" y="514" width="14" height="14" fill="#8064A2"/>
<text class="legend" x="1263.3" y="526">aFRR激活下调</text>
</svg>