<svg xmlns="http://www.w3.org/2000/svg" width="1000" height="410" viewBox="0 0 1000 410">
<rect width="100%" height="100%" fill="white"/>
<style>text{font-family:Segoe UI,Arial,sans-serif;fill:#263238}.tick{font-size:13px}.xlabel{font-size:12px}.legend{font-size:13px}.title{font-size:21px;font-weight:600}.axis{font-size:14px}</style>
<text class="title" x="500.0" y="30" text-anchor="middle">Q4小时平均市场现金收益</text>
<line x1="100" y1="288.00" x2="972" y2="288.00" stroke="#d9dfe5"/>
<text class="tick" x="90" y="292.00" text-anchor="end">-60</text>
<line x1="100" y1="266.60" x2="972" y2="266.60" stroke="#d9dfe5"/>
<text class="tick" x="90" y="270.60" text-anchor="end">-40</text>
<line x1="100" y1="245.20" x2="972" y2="245.20" stroke="#d9dfe5"/>
<text class="tick" x="90" y="249.20" text-anchor="end">-20</text>
<line x1="100" y1="223.80" x2="972" y2="223.80" stroke="#d9dfe5"/>
<text class="tick" x="90" y="227.80" text-anchor="end">0</text>
<line x1="100" y1="202.40" x2="972" y2="202.40" stroke="#d9dfe5"/>
<text class="tick" x="90" y="206.40" text-anchor="end">20</text>
<line x1="100" y1="181.00" x2="972" y2="181.00" stroke="#d9dfe5"/>
<text class="tick" x="90" y="185.00" text-anchor="end">40</text>
<line x1="100" y1="159.60" x2="972" y2="159.60" stroke="#d9dfe5"/>
<text class="tick" x="90" y="163.60" text-anchor="end">60</text>
<line x1="100" y1="138.20" x2="972" y2="138.20" stroke="#d9dfe5"/>
<text class="tick" x="90" y="142.20" text-anchor="end">80</text>
<line x1="100" y1="116.80" x2="972" y2="116.80" stroke="#d9dfe5"/>
<text class="tick" x="90" y="120.80" text-anchor="end">100</text>
<line x1="100" y1="95.40" x2="972" y2="95.40" stroke="#d9dfe5"/>
<text class="tick" x="90" y="99.40" text-anchor="end">120</text>
<line x1="100" y1="74.00" x2="972" y2="74.00" stroke="#d9dfe5"/>
<text class="tick" x="90" y="78.00" text-anchor="end">140</text>
<line x1="100" y1="223.80" x2="972" y2="223.80" stroke="#37474f" stroke-width="1.4"/>
<text class="axis" x="20" y="181.0" text-anchor="middle" transform="rotate(-90 20 181.0)">平均收益（kEUR/MW × 10⁻³）</text>
<rect x="105.09" y="198.34" width="26.16" height="25.46" fill="#4472C4"/>
<rect x="105.09" y="223.80" width="26.16" height="14.80" fill="#ED7D31"/>
<rect x="105.09" y="192.83" width="26.16" height="5.51" fill="#70AD47"/>
<rect x="105.09" y="189.28" width="26.16" height="3.55" fill="#A5A5A5"/>
<rect x="105.09" y="185.29" width="26.16" height="3.99" fill="#FFC000"/>
<rect x="105.09" y="238.60" width="26.16" height="0.70" fill="#8064A2"/>
<text class="xlabel" x="118.17" y="311" text-anchor="middle">0</text>
<rect x="141.42" y="211.99" width="26.16" height="11.81" fill="#4472C4"/>
<rect x="141.42" y="223.80" width="26.16" height="1.62" fill="#ED7D31"/>
<rect x="141.42" y="208.21" width="26.16" height="3.78" fill="#70AD47"/>
<rect x="141.42" y="204.93" width="26.16" height="3.28" fill="#A5A5A5"/>
<rect x="141.42" y="202.32" width="26.16" height="2.61" fill="#FFC000"/>
<rect x="141.42" y="225.42" width="26.16" height="0.70" fill="#8064A2"/>
<text class="xlabel" x="154.50" y="311" text-anchor="middle">1</text>
<rect x="177.75" y="217.77" width="26.16" height="6.03" fill="#4472C4"/>
<rect x="177.75" y="214.99" width="26.16" height="2.79" fill="#ED7D31"/>
<rect x="177.75" y="211.47" width="26.16" height="3.52" fill="#70AD47"/>
<rect x="177.75" y="207.33" width="26.16" height="4.14" fill="#A5A5A5"/>
<rect x="177.75" y="205.45" width="26.16" height="1.88" fill="#FFC000"/>
<rect x="177.75" y="223.80" width="26.16" height="0.70" fill="#8064A2"/>
<text class="xlabel" x="190.83" y="311" text-anchor="middle">2</text>
<rect x="214.09" y="215.75" width="26.16" height="8.05" fill="#4472C4"/>
<rect x="214.09" y="223.80" width="26.16" height="0.70" fill="#ED7D31"/>
<rect x="214.09" y="212.38" width="26.16" height="3.37" fill="#70AD47"/>
<rect x="214.09" y="207.81" width="26.16" height="4.57" fill="#A5A5A5"/>
<rect x="214.09" y="205.79" width="26.16" height="2.03" fill="#FFC000"/>
<rect x="214.09" y="224.06" width="26.16" height="0.70" fill="#8064A2"/>
<text class="xlabel" x="227.17" y="311" text-anchor="middle">3</text>
<rect x="250.42" y="215.42" width="26.16" height="8.38" fill="#4472C4"/>
<rect x="250.42" y="213.60" width="26.16" height="1.82" fill="#ED7D31"/>
<rect x="250.42" y="210.50" width="26.16" height="3.09" fill="#70AD47"/>
<rect x="250.42" y="204.41" width="26.16" height="6.09" fill="#A5A5A5"/>
<rect x="250.42" y="202.35" width="26.16" height="2.06" fill="#FFC000"/>
<rect x="250.42" y="223.80" width="26.16" height="0.70" fill="#8064A2"/>
<text class="xlabel" x="263.50" y="311" text-anchor="middle">4</text>
<rect x="286.75" y="215.19" width="26.16" height="8.61" fill="#4472C4"/>
<rect x="286.75" y="214.22" width="26.16" height="0.97" fill="#ED7D31"/>
<rect x="286.75" y="210.80" width="26.16" height="3.43" fill="#70AD47"/>
<rect x="286.75" y="203.61" width="26.16" height="7.18" fill="#A5A5A5"/>
<rect x="286.75" y="202.11" width="26.16" height="1.50" fill="#FFC000"/>
<rect x="286.75" y="223.80" width="26.16" height="0.70" fill="#8064A2"/>
<text class="xlabel" x="299.83" y="311" text-anchor="middle">5</text>
<rect x="323.09" y="193.58" width="26.16" height="30.22" fill="#4472C4"/>
<rect x="323.09" y="223.80" width="26.16" height="18.53" fill="#ED7D31"/>
<rect x="323.09" y="188.71" width="26.16" height="4.86" fill="#70AD47"/>
<rect x="323.09" y="182.80" width="26.16" height="5.91" fill="#A5A5A5"/>
<rect x="323.09" y="180.72" width="26.16" height="2.08" fill="#FFC000"/>
<rect x="323.09" y="242.33" width="26.16" height="0.70" fill="#8064A2"/>
<text class="xlabel" x="336.17" y="311" text-anchor="middle">6</text>
<rect x="359.42" y="191.47" width="26.16" height="32.33" fill="#4472C4"/>
<rect x="359.42" y="223.80" width="26.16" height="18.16" fill="#ED7D31"/>
<rect x="359.42" y="184.92" width="26.16" height="6.55" fill="#70AD47"/>
<rect x="359.42" y="180.16" width="26.16" height="4.76" fill="#A5A5A5"/>
<rect x="359.42" y="177.45" width="26.16" height="2.70" fill="#FFC000"/>
<rect x="359.42" y="241.96" width="26.16" height="0.70" fill="#8064A2"/>
<text class="xlabel" x="372.50" y="311" text-anchor="middle">7</text>
<rect x="395.75" y="184.69" width="26.16" height="39.11" fill="#4472C4"/>
<rect x="395.75" y="223.80" width="26.16" height="25.13" fill="#ED7D31"/>
<rect x="395.75" y="170.89" width="26.16" height="13.80" fill="#70AD47"/>
<rect x="395.75" y="161.17" width="26.16" height="9.72" fill="#A5A5A5"/>
<rect x="395.75" y="156.53" width="26.16" height="4.64" fill="#FFC000"/>
<rect x="395.75" y="248.93" width="26.16" height="0.70" fill="#8064A2"/>
<text class="xlabel" x="408.83" y="311" text-anchor="middle">8</text>
<rect x="432.09" y="207.51" width="26.16" height="16.29" fill="#4472C4"/>
<rect x="432.09" y="223.80" width="26.16" height="2.91" fill="#ED7D31"/>
<rect x="432.09" y="195.31" width="26.16" height="12.20" fill="#70AD47"/>
<rect x="432.09" y="187.17" width="26.16" height="8.14" fill="#A5A5A5"/>
<rect x="432.09" y="183.45" width="26.16" height="3.71" fill="#FFC000"/>
<rect x="432.09" y="226.71" width="26.16" height="0.70" fill="#8064A2"/>
<text class="xlabel" x="445.17" y="311" text-anchor="middle">9</text>
<rect x="468.42" y="218.43" width="26.16" height="5.37" fill="#4472C4"/>
<rect x="468.42" y="214.27" width="26.16" height="4.16" fill="#ED7D31"/>
<rect x="468.42" y="205.05" width="26.16" height="9.22" fill="#70AD47"/>
<rect x="468.42" y="202.81" width="26.16" height="2.25" fill="#A5A5A5"/>
<rect x="468.42" y="199.40" width="26.16" height="3.40" fill="#FFC000"/>
<rect x="468.42" y="199.32" width="26.16" height="0.70" fill="#8064A2"/>
<text class="xlabel" x="481.50" y="311" text-anchor="middle">10</text>
<rect x="504.75" y="223.80" width="26.16" height="11.83" fill="#4472C4"/>
<rect x="504.75" y="204.41" width="26.16" height="19.39" fill="#ED7D31"/>
<rect x="504.75" y="197.29" width="26.16" height="7.12" fill="#70AD47"/>
<rect x="504.75" y="196.23" width="26.16" height="1.06" fill="#A5A5A5"/>
<rect x="504.75" y="194.67" width="26.16" height="1.56" fill="#FFC000"/>
<rect x="504.75" y="193.23" width="26.16" height="1.44" fill="#8064A2"/>
<text class="xlabel" x="517.83" y="311" text-anchor="middle">11</text>
<rect x="541.09" y="223.80" width="26.16" height="13.95" fill="#4472C4"/>
<rect x="541.09" y="193.17" width="26.16" height="30.63" fill="#ED7D31"/>
<rect x="541.09" y="188.36" width="26.16" height="4.81" fill="#70AD47"/>
<rect x="541.09" y="187.47" width="26.16" height="0.89" fill="#A5A5A5"/>
<rect x="541.09" y="185.31" width="26.16" height="2.16" fill="#FFC000"/>
<rect x="541.09" y="185.00" width="26.16" height="0.70" fill="#8064A2"/>
<text class="xlabel" x="554.17" y="311" text-anchor="middle">12</text>
<rect x="577.42" y="223.80" width="26.16" height="15.29" fill="#4472C4"/>
<rect x="577.42" y="196.15" width="26.16" height="27.65" fill="#ED7D31"/>
<rect x="577.42" y="192.23" width="26.16" height="3.92" fill="#70AD47"/>
<rect x="577.42" y="191.27" width="26.16" height="0.96" fill="#A5A5A5"/>
<rect x="577.42" y="189.53" width="26.16" height="1.73" fill="#FFC000"/>
<rect x="577.42" y="189.29" width="26.16" height="0.70" fill="#8064A2"/>
<text class="xlabel" x="590.50" y="311" text-anchor="middle">13</text>
<rect x="613.75" y="223.80" width="26.16" height="10.11" fill="#4472C4"/>
<rect x="613.75" y="202.38" width="26.16" height="21.42" fill="#ED7D31"/>
<rect x="613.75" y="198.44" width="26.16" height="3.94" fill="#70AD47"/>
<rect x="613.75" y="197.46" width="26.16" height="0.99" fill="#A5A5A5"/>
<rect x="613.75" y="195.76" width="26.16" height="1.70" fill="#FFC000"/>
<rect x="613.75" y="195.42" width="26.16" height="0.70" fill="#8064A2"/>
<text class="xlabel" x="626.83" y="311" text-anchor="middle">14</text>
<rect x="650.09" y="223.80" width="26.16" height="4.42" fill="#4472C4"/>
<rect x="650.09" y="206.98" width="26.16" height="16.82" fill="#ED7D31"/>
<rect x="650.09" y="202.41" width="26.16" height="4.56" fill="#70AD47"/>
<rect x="650.09" y="200.76" width="26.16" height="1.66" fill="#A5A5A5"/>
<rect x="650.09" y="198.82" width="26.16" height="1.93" fill="#FFC000"/>
<rect x="650.09" y="195.95" width="26.16" height="2.88" fill="#8064A2"/>
<text class="xlabel" x="663.17" y="311" text-anchor="middle">15</text>
<rect x="686.42" y="223.80" width="26.16" height="1.25" fill="#4472C4"/>
<rect x="686.42" y="206.01" width="26.16" height="17.79" fill="#ED7D31"/>
<rect x="686.42" y="201.11" width="26.16" height="4.90" fill="#70AD47"/>
<rect x="686.42" y="198.08" width="26.16" height="3.03" fill="#A5A5A5"/>
<rect x="686.42" y="195.56" width="26.16" height="2.51" fill="#FFC000"/>
<rect x="686.42" y="195.05" width="26.16" height="0.70" fill="#8064A2"/>
<text class="xlabel" x="699.50" y="311" text-anchor="middle">16</text>
<rect x="722.75" y="215.85" width="26.16" height="7.95" fill="#4472C4"/>
<rect x="722.75" y="209.84" width="26.16" height="6.00" fill="#ED7D31"/>
<rect x="722.75" y="199.07" width="26.16" height="10.77" fill="#70AD47"/>
<rect x="722.75" y="192.09" width="26.16" height="6.98" fill="#A5A5A5"/>
<rect x="722.75" y="189.73" width="26.16" height="2.36" fill="#FFC000"/>
<rect x="722.75" y="189.61" width="26.16" height="0.70" fill="#8064A2"/>
<text class="xlabel" x="735.83" y="311" text-anchor="middle">17</text>
<rect x="759.09" y="202.51" width="26.16" height="21.29" fill="#4472C4"/>
<rect x="759.09" y="223.80" width="26.16" height="6.98" fill="#ED7D31"/>
<rect x="759.09" y="193.25" width="26.16" height="9.26" fill="#70AD47"/>
<rect x="759.09" y="186.33" width="26.16" height="6.92" fill="#A5A5A5"/>
<rect x="759.09" y="182.12" width="26.16" height="4.21" fill="#FFC000"/>
<rect x="759.09" y="182.00" width="26.16" height="0.70" fill="#8064A2"/>
<text class="xlabel" x="772.17" y="311" text-anchor="middle">18</text>
<rect x="795.42" y="180.06" width="26.16" height="43.74" fill="#4472C4"/>
<rect x="795.42" y="223.80" width="26.16" height="25.73" fill="#ED7D31"/>
<rect x="795.42" y="167.19" width="26.16" height="12.88" fill="#70AD47"/>
<rect x="795.42" y="164.33" width="26.16" height="2.86" fill="#A5A5A5"/>
<rect x="795.42" y="159.41" width="26.16" height="4.92" fill="#FFC000"/>
<rect x="795.42" y="249.53" width="26.16" height="0.70" fill="#8064A2"/>
<text class="xlabel" x="808.50" y="311" text-anchor="middle">19</text>
<rect x="831.75" y="158.15" width="26.16" height="65.65" fill="#4472C4"/>
<rect x="831.75" y="223.80" width="26.16" height="36.50" fill="#ED7D31"/>
<rect x="831.75" y="146.81" width="26.16" height="11.34" fill="#70AD47"/>
<rect x="831.75" y="145.12" width="26.16" height="1.70" fill="#A5A5A5"/>
<rect x="831.75" y="143.59" width="26.16" height="1.53" fill="#FFC000"/>
<rect x="831.75" y="260.30" width="26.16" height="1.27" fill="#8064A2"/>
<text class="xlabel" x="844.83" y="311" text-anchor="middle">20</text>
<rect x="868.09" y="179.44" width="26.16" height="44.36" fill="#4472C4"/>
<rect x="868.09" y="223.80" width="26.16" height="10.78" fill="#ED7D31"/>
<rect x="868.09" y="173.24" width="26.16" height="6.20" fill="#70AD47"/>
<rect x="868.09" y="172.12" width="26.16" height="1.13" fill="#A5A5A5"/>
<rect x="868.09" y="170.17" width="26.16" height="1.94" fill="#FFC000"/>
<rect x="868.09" y="234.58" width="26.16" height="1.08" fill="#8064A2"/>
<text class="xlabel" x="881.17" y="311" text-anchor="middle">21</text>
<rect x="904.42" y="191.55" width="26.16" height="32.25" fill="#4472C4"/>
<rect x="904.42" y="223.80" width="26.16" height="11.36" fill="#ED7D31"/>
<rect x="904.42" y="188.36" width="26.16" height="3.20" fill="#70AD47"/>
<rect x="904.42" y="186.80" width="26.16" height="1.55" fill="#A5A5A5"/>
<rect x="904.42" y="184.42" width="26.16" height="2.38" fill="#FFC000"/>
<rect x="904.42" y="235.16" width="26.16" height="0.78" fill="#8064A2"/>
<text class="xlabel" x="917.50" y="311" text-anchor="middle">22</text>
<rect x="940.75" y="213.91" width="26.16" height="9.89" fill="#4472C4"/>
<rect x="940.75" y="208.89" width="26.16" height="5.02" fill="#ED7D31"/>
<rect x="940.75" y="203.29" width="26.16" height="5.60" fill="#70AD47"/>
<rect x="940.75" y="201.20" width="26.16" height="2.09" fill="#A5A5A5"/>
<rect x="940.75" y="199.33" width="26.16" height="1.87" fill="#FFC000"/>
<rect x="940.75" y="223.80" width="26.16" height="0.95" fill="#8064A2"/>
<text class="xlabel" x="953.83" y="311" text-anchor="middle">23</text>
<rect x="100.0" y="364" width="14" height="14" fill="#4472C4"/>
<text class="legend" x="120.0" y="376">DA电能</text>
<rect x="245.3" y="364" width="14" height="14" fill="#ED7D31"/>
<text class="legend" x="265.3" y="376">ID电能</text>
<rect x="390.7" y="364" width="14" height="14" fill="#70AD47"/>
<text class="legend" x="410.7" y="376">aFRR容量上调</text>
<rect x="536.0" y="364" width="14" height="14" fill="#A5A5A5"/>
<text class="legend" x="556.0" y="376">aFRR容量下调</text>
<rect x="681.3" y="364" width="14" height="14" fill="#FFC000"/>
<text class="legend" x="701.3" y="376">aFRR激活上调</text>
<rect x="826.7" y="364" width="14" height="14" fill="#8064A2"/>
<text class="legend" x="846.7" y="376">aFRR激活下调</text>
</svg>