<svg xmlns="http://www.w3.org/2000/svg" width="1500" height="560" viewBox="0 0 1500 560">
<rect width="100%" height="100%" fill="white"/>
<style>text{font-family:Segoe UI,Arial,sans-serif;fill:#263238}.tick{font-size:13px}.xlabel{font-size:12px}.legend{font-size:13px}.title{font-size:21px;font-weight:600}.axis{font-size:14px}</style>
<text class="title" x="750.0" y="30" text-anchor="middle">月度单位功率收益分解</text>
<line x1="100" y1="438.00" x2="1472" y2="438.00" stroke="#d9dfe5"/>
<text class="tick" x="90" y="442.00" text-anchor="end">-18</text>
<line x1="100" y1="401.60" x2="1472" y2="401.60" stroke="#d9dfe5"/>
<text class="tick" x="90" y="405.60" text-anchor="end">-9</text>
<line x1="100" y1="365.20" x2="1472" y2="365.20" stroke="#d9dfe5"/>
<text class="tick" x="90" y="369.20" text-anchor="end">0</text>
<line x1="100" y1="328.80" x2="1472" y2="328.80" stroke="#d9dfe5"/>
<text class="tick" x="90" y="332.80" text-anchor="end">9</text>
<line x1="100" y1="292.40" x2="1472" y2="292.40" stroke="#d9dfe5"/>
<text class="tick" x="90" y="296.40" text-anchor="end">18</text>
<line x1="100" y1="256.00" x2="1472" y2="256.00" stroke="#d9dfe5"/>
<text class="tick" x="90" y="260.00" text-anchor="end">27</text>
<line x1="100" y1="219.60" x2="1472" y2="219.60" stroke="#d9dfe5"/>
<text class="tick" x="90" y="223.60" text-anchor="end">36</text>
<line x1="100" y1="183.20" x2="1472" y2="183.20" stroke="#d9dfe5"/>
<text class="tick" x="90" y="187.20" text-anchor="end">45</text>
<line x1="100" y1="146.80" x2="1472" y2="146.80" stroke="#d9dfe5"/>
<text class="tick" x="90" y="150.80" text-anchor="end">54</text>
<line x1="100" y1="110.40" x2="1472" y2="110.40" stroke="#d9dfe5"/>
<text class="tick" x="90" y="114.40" text-anchor="end">63</text>
<line x1="100" y1="74.00" x2="1472" y2="74.00" stroke="#d9dfe5"/>
<text class="tick" x="90" y="78.00" text-anchor="end">72</text>
<line x1="100" y1="365.20" x2="1472" y2="365.20" stroke="#37474f" stroke-width="1.4"/>
<text class="axis" x="20" y="256.0" text-anchor="middle" transform="rotate(-90 20 256.0)">收入（kEUR / MW）</text>
<rect x="109.60" y="324.43" width="49.39" height="40.77" fill="#4472C4"/>
<rect x="109.60" y="365.20" width="49.39" height="12.69" fill="#ED7D31"/>
<rect x="109.60" y="231.08" width="49.39" height="93.35" fill="#70AD47"/>
<rect x="109.60" y="176.42" width="49.39" height="54.66" fill="#A5A5A5"/>
<rect x="109.60" y="146.10" width="49.39" height="30.32" fill="#FFC000"/>
<rect x="109.60" y="377.89" width="49.39" height="6.45" fill="#8064A2"/>
<text class="xlabel" x="134.30" y="461" text-anchor="middle">2025/01</text>
<rect x="178.20" y="290.57" width="49.39" height="74.63" fill="#4472C4"/>
<rect x="178.20" y="365.20" width="49.39" height="38.32" fill="#ED7D31"/>
<rect x="178.20" y="173.32" width="49.39" height="117.25" fill="#70AD47"/>
<rect x="178.20" y="124.42" width="49.39" height="48.90" fill="#A5A5A5"/>
<rect x="178.20" y="98.56" width="49.39" height="25.86" fill="#FFC000"/>
<rect x="178.20" y="403.52" width="49.39" height="6.99" fill="#8064A2"/>
<text class="xlabel" x="202.90" y="461" text-anchor="middle">2025/02</text>
<rect x="246.80" y="324.76" width="49.39" height="40.44" fill="#4472C4"/>
<rect x="246.80" y="319.58" width="49.39" height="5.18" fill="#ED7D31"/>
<rect x="246.80" y="257.15" width="49.39" height="62.42" fill="#70AD47"/>
<rect x="246.80" y="193.21" width="49.39" height="63.94" fill="#A5A5A5"/>
<rect x="246.80" y="163.29" width="49.39" height="29.92" fill="#FFC000"/>
<rect x="246.80" y="157.05" width="49.39" height="6.24" fill="#8064A2"/>
<text class="xlabel" x="271.50" y="461" text-anchor="middle">2025/03</text>
<rect x="315.40" y="332.56" width="49.39" height="32.64" fill="#4472C4"/>
<rect x="315.40" y="327.52" width="49.39" height="5.04" fill="#ED7D31"/>
<rect x="315.40" y="301.52" width="49.39" height="26.00" fill="#70AD47"/>
<rect x="315.40" y="271.90" width="49.39" height="29.61" fill="#A5A5A5"/>
<rect x="315.40" y="253.39" width="49.39" height="18.52" fill="#FFC000"/>
<rect x="315.40" y="246.29" width="49.39" height="7.09" fill="#8064A2"/>
<text class="xlabel" x="340.10" y="461" text-anchor="middle">2025/04</text>
<rect x="384.00" y="342.77" width="49.39" height="22.43" fill="#4472C4"/>
<rect x="384.00" y="323.55" width="49.39" height="19.22" fill="#ED7D31"/>
<rect x="384.00" y="311.70" width="49.39" height="11.85" fill="#70AD47"/>
<rect x="384.00" y="291.38" width="49.39" height="20.32" fill="#A5A5A5"/>
<rect x="384.00" y="279.61" width="49.39" height="11.77" fill="#FFC000"/>
<rect x="384.00" y="274.04" width="49.39" height="5.56" fill="#8064A2"/>
<text class="xlabel" x="408.70" y="461" text-anchor="middle">2025/05</text>
<rect x="452.60" y="307.06" width="49.39" height="58.14" fill="#4472C4"/>
<rect x="452.60" y="365.20" width="49.39" height="5.21" fill="#ED7D31"/>
<rect x="452.60" y="279.68" width="49.39" height="27.37" fill="#70AD47"/>
<rect x="452.60" y="262.84" width="49.39" height="16.84" fill="#A5A5A5"/>
<rect x="452.60" y="234.49" width="49.39" height="28.35" fill="#FFC000"/>
<rect x="452.60" y="370.41" width="49.39" height="3.21" fill="#8064A2"/>
<text class="xlabel" x="477.30" y="461" text-anchor="middle">2025/06</text>
<rect x="521.20" y="331.01" width="49.39" height="34.19" fill="#4472C4"/>
<rect x="521.20" y="320.43" width="49.39" height="10.58" fill="#ED7D31"/>
<rect x="521.20" y="272.27" width="49.39" height="48.16" fill="#70AD47"/>
<rect x="521.20" y="252.23" width="49.39" height="20.03" fill="#A5A5A5"/>
<rect x="521.20" y="235.55" width="49.39" height="16.69" fill="#FFC000"/>
<rect x="521.20" y="365.20" width="49.39" height="3.01" fill="#8064A2"/>
<text class="xlabel" x="545.90" y="461" text-anchor="middle">2025/07</text>
<rect x="589.80" y="313.98" width="49.39" height="51.22" fill="#4472C4"/>
<rect x="589.80" y="365.20" width="49.39" height="3.74" fill="#ED7D31"/>
<rect x="589.80" y="256.93" width="49.39" height="57.06" fill="#70AD47"/>
<rect x="589.80" y="224.85" width="49.39" height="32.07" fill="#A5A5A5"/>
<rect x="589.80" y="203.34" width="49.39" height="21.52" fill="#FFC000"/>
<rect x="589.80" y="368.94" width="49.39" height="3.58" fill="#8064A2"/>
<text class="xlabel" x="614.50" y="461" text-anchor="middle">2025/08</text>
<rect x="658.40" y="320.82" width="49.39" height="44.38" fill="#4472C4"/>
<rect x="658.40" y="310.55" width="49.39" height="10.28" fill="#ED7D31"/>
<rect x="658.40" y="256.61" width="49.39" height="53.94" fill="#70AD47"/>
<rect x="658.40" y="207.65" width="49.39" height="48.96" fill="#A5A5A5"/>
<rect x="658.40" y="187.19" width="49.39" height="20.46" fill="#FFC000"/>
<rect x="658.40" y="186.81" width="49.39" height="0.70" fill="#8064A2"/>
<text class="xlabel" x="683.10" y="461" text-anchor="middle">2025/09</text>
<rect x="727.00" y="325.31" width="49.39" height="39.89" fill="#4472C4"/>
<rect x="727.00" y="365.20" width="49.39" height="5.02" fill="#ED7D31"/>
<rect x="727.00" y="282.97" width="49.39" height="42.33" fill="#70AD47"/>
<rect x="727.00" y="263.82" width="49.39" height="19.15" fill="#A5A5A5"/>
<rect x="727.00" y="244.84" width="49.39" height="18.97" fill="#FFC000"/>
<rect x="727.00" y="370.22" width="49.39" height="0.70" fill="#8064A2"/>
<text class="xlabel" x="751.70" y="461" text-anchor="middle">2025/10</text>
<rect x="795.60" y="331.95" width="49.39" height="33.25" fill="#4472C4"/>
<rect x="795.60" y="327.57" width="49.39" height="4.38" fill="#ED7D31"/>
<rect x="795.60" y="322.95" width="49.39" height="4.62" fill="#70AD47"/>
<rect x="795.60" y="317.20" width="49.39" height="5.75" fill="#A5A5A5"/>
<text class="xlabel" x="820.30" y="461" text-anchor="middle">2025/11</text>
<rect x="864.20" y="325.71" width="49.39" height="39.49" fill="#4472C4"/>
<rect x="864.20" y="365.20" width="49.39" height="6.13" fill="#ED7D31"/>
<rect x="864.20" y="323.88" width="49.39" height="1.83" fill="#70AD47"/>
<rect x="864.20" y="320.34" width="49.39" height="3.54" fill="#A5A5A5"/>
<text class="xlabel" x="888.90" y="461" text-anchor="middle">2025/12</text>
<rect x="932.80" y="329.04" width="49.39" height="36.16" fill="#4472C4"/>
<rect x="932.80" y="325.91" width="49.39" height="3.13" fill="#ED7D31"/>
<rect x="932.80" y="293.67" width="49.39" height="32.23" fill="#70AD47"/>
<rect x="932.80" y="279.58" width="49.39" height="14.09" fill="#A5A5A5"/>
<rect x="932.80" y="254.50" width="49.39" height="25.08" fill="#FFC000"/>
<rect x="932.80" y="248.54" width="49.39" height="5.96" fill="#8064A2"/>
<text class="xlabel" x="957.50" y="461" text-anchor="middle">2026/01</text>
<rect x="1001.40" y="344.98" width="49.39" height="20.22" fill="#4472C4"/>
<rect x="1001.40" y="335.96" width="49.39" height="9.02" fill="#ED7D31"/>
<rect x="1001.40" y="314.40" width="49.39" height="21.56" fill="#70AD47"/>
<rect x="1001.40" y="285.21" width="49.39" height="29.20" fill="#A5A5A5"/>
<rect x="1001.40" y="272.67" width="49.39" height="12.53" fill="#FFC000"/>
<rect x="1001.40" y="263.03" width="49.39" height="9.64" fill="#8064A2"/>
<text class="xlabel" x="1026.10" y="461" text-anchor="middle">2026/02</text>
<rect x="1070.00" y="332.86" width="49.39" height="32.34" fill="#4472C4"/>
<rect x="1070.00" y="305.67" width="49.39" height="27.19" fill="#ED7D31"/>
<rect x="1070.00" y="284.76" width="49.39" height="20.91" fill="#70AD47"/>
<rect x="1070.00" y="268.94" width="49.39" height="15.82" fill="#A5A5A5"/>
<rect x="1070.00" y="253.42" width="49.39" height="15.52" fill="#FFC000"/>
<rect x="1070.00" y="246.31" width="49.39" height="7.10" fill="#8064A2"/>
<text class="xlabel" x="1094.70" y="461" text-anchor="middle">2026/03</text>
<rect x="1138.60" y="365.20" width="49.39" height="5.94" fill="#4472C4"/>
<rect x="1138.60" y="310.48" width="49.39" height="54.72" fill="#ED7D31"/>
<rect x="1138.60" y="294.29" width="49.39" height="16.19" fill="#70AD47"/>
<rect x="1138.60" y="269.30" width="49.39" height="24.99" fill="#A5A5A5"/>
<rect x="1138.60" y="249.80" width="49.39" height="19.50" fill="#FFC000"/>
<rect x="1138.60" y="248.97" width="49.39" height="0.83" fill="#8064A2"/>
<text class="xlabel" x="1163.30" y="461" text-anchor="middle">2026/04</text>
<rect x="1207.20" y="346.84" width="49.39" height="18.36" fill="#4472C4"/>
<rect x="1207.20" y="313.51" width="49.39" height="33.33" fill="#ED7D31"/>
<rect x="1207.20" y="285.88" width="49.39" height="27.63" fill="#70AD47"/>
<rect x="1207.20" y="264.84" width="49.39" height="21.04" fill="#A5A5A5"/>
<rect x="1207.20" y="248.37" width="49.39" height="16.48" fill="#FFC000"/>
<rect x="1207.20" y="365.20" width="49.39" height="2.22" fill="#8064A2"/>
<text class="xlabel" x="1231.90" y="461" text-anchor="middle">2026/05</text>
<rect x="1275.80" y="340.98" width="49.39" height="24.22" fill="#4472C4"/>
<rect x="1275.80" y="315.55" width="49.39" height="25.44" fill="#ED7D31"/>
<rect x="1275.80" y="285.01" width="49.39" height="30.54" fill="#70AD47"/>
<rect x="1275.80" y="274.74" width="49.39" height="10.26" fill="#A5A5A5"/>
<rect x="1275.80" y="252.05" width="49.39" height="22.70" fill="#FFC000"/>
<rect x="1275.80" y="365.20" width="49.39" height="2.41" fill="#8064A2"/>
<text class="xlabel" x="1300.50" y="461" text-anchor="middle">2026/06</text>
<rect x="1344.40" y="365.20" width="49.39" height="17.49" fill="#4472C4"/>
<rect x="1344.40" y="302.86" width="49.39" height="62.34" fill="#ED7D31"/>
<rect x="1344.40" y="295.29" width="49.39" height="7.58" fill="#70AD47"/>
<rect x="1344.40" y="292.88" width="49.39" height="2.41" fill="#A5A5A5"/>
<rect x="1344.40" y="289.51" width="49.39" height="3.37" fill="#FFC000"/>
<rect x="1344.40" y="382.69" width="49.39" height="0.70" fill="#8064A2"/>
<text class="xlabel" x="1369.10" y="461" text-anchor="middle">2026/07</text>
<rect x="1413.00" y="339.66" width="49.39" height="25.54" fill="#4472C4"/>
<rect x="1413.00" y="332.43" width="49.39" height="7.23" fill="#ED7D31"/>
<rect x="1413.00" y="324.75" width="49.39" height="7.68" fill="#70AD47"/>
<rect x="1413.00" y="321.98" width="49.39" height="2.77" fill="#A5A5A5"/>
<rect x="1413.00" y="321.35" width="49.39" height="0.70" fill="#FFC000"/>
<rect x="1413.00" y="365.20" width="49.39" height="0.70" fill="#8064A2"/>
<text class="xlabel" x="1437.70" y="461" text-anchor="middle">2026/08</text>
<rect x="100.0" y="514" width="14" height="14" fill="#4472C4"/>
<text class="legend" x="120.0" y="526">DA电能</text>
<rect x="328.7" y="514" width="14" height="14" fill="#ED7D31"/>
<text class="legend" x="348.7" y="526">ID电能</text>
<rect x="557.3" y="514" width="14" height="14" fill="#70AD47"/>
<text class="legend" x="577.3" y="526">aFRR容量上调</text>
<rect x="786.0" y="514" width="14" height="14" fill="#A5A5A5"/>
<text class="legend" x="806.0" y="526">aFRR容量下调</text>
<rect x="1014.7" y="514" width="14" height="14" fill="#FFC000"/>
<text class="legend" x="1034.7" y="526">aFRR激活上调</text>
<rect x="1243.3" y="514" width="14" height="14" fill="#8064A2"/>
<text class="legend" x="1263.3" y="526">aFRR激活下调</text>
</svg>