<svg xmlns="http://www.w3.org/2000/svg" width="1000" height="410" viewBox="0 0 1000 410">
<rect width="100%" height="100%" fill="white"/>
<style>text{font-family:Segoe UI,Arial,sans-serif;fill:#263238}.tick{font-size:13px}.xlabel{font-size:12px}.legend{font-size:13px}.title{font-size:21px;font-weight:600}.axis{font-size:14px}</style>
<text class="title" x="500.0" y="30" text-anchor="middle">Q4小时平均市场现金收益</text>
<line x1="100" y1="288.00" x2="972" y2="288.00" stroke="#d9dfe5"/>
<text class="tick" x="90" y="292.00" text-anchor="end">-40</text>
<line x1="100" y1="266.60" x2="972" y2="266.60" stroke="#d9dfe5"/>
<text class="tick" x="90" y="270.60" text-anchor="end">-20</text>
<line x1="100" y1="245.20" x2="972" y2="245.20" stroke="#d9dfe5"/>
<text class="tick" x="90" y="249.20" text-anchor="end">0</text>
<line x1="100" y1="223.80" x2="972" y2="223.80" stroke="#d9dfe5"/>
<text class="tick" x="90" y="227.80" text-anchor="end">20</text>
<line x1="100" y1="202.40" x2="972" y2="202.40" stroke="#d9dfe5"/>
<text class="tick" x="90" y="206.40" text-anchor="end">40</text>
<line x1="100" y1="181.00" x2="972" y2="181.00" stroke="#d9dfe5"/>
<text class="tick" x="90" y="185.00" text-anchor="end">60</text>
<line x1="100" y1="159.60" x2="972" y2="159.60" stroke="#d9dfe5"/>
<text class="tick" x="90" y="163.60" text-anchor="end">80</text>
<line x1="100" y1="138.20" x2="972" y2="138.20" stroke="#d9dfe5"/>
<text class="tick" x="90" y="142.20" text-anchor="end">100</text>
<line x1="100" y1="116.80" x2="972" y2="116.80" stroke="#d9dfe5"/>
<text class="tick" x="90" y="120.80" text-anchor="end">120</text>
<line x1="100" y1="95.40" x2="972" y2="95.40" stroke="#d9dfe5"/>
<text class="tick" x="90" y="99.40" text-anchor="end">140</text>
<line x1="100" y1="74.00" x2="972" y2="74.00" stroke="#d9dfe5"/>
<text class="tick" x="90" y="78.00" text-anchor="end">160</text>
<line x1="100" y1="245.20" x2="972" y2="245.20" stroke="#37474f" stroke-width="1.4"/>
<text class="axis" x="20" y="181.0" text-anchor="middle" transform="rotate(-90 20 181.0)">平均收益（kEUR/MW × 10⁻³）</text>
<rect x="105.09" y="214.19" width="26.16" height="31.01" fill="#4472C4"/>
<rect x="105.09" y="245.20" width="26.16" height="22.04" fill="#ED7D31"/>
<rect x="105.09" y="204.10" width="26.16" height="10.08" fill="#70AD47"/>
<rect x="105.09" y="193.68" width="26.16" height="10.43" fill="#A5A5A5"/>
<rect x="105.09" y="182.28" width="26.16" height="11.40" fill="#FFC000"/>
<rect x="105.09" y="267.24" width="26.16" height="1.72" fill="#8064A2"/>
<text class="xlabel" x="118.17" y="311" text-anchor="middle">0</text>
<rect x="141.42" y="230.18" width="26.16" height="15.02" fill="#4472C4"/>
<rect x="141.42" y="245.20" width="26.16" height="10.88" fill="#ED7D31"/>
<rect x="141.42" y="221.64" width="26.16" height="8.54" fill="#70AD47"/>
<rect x="141.42" y="211.12" width="26.16" height="10.52" fill="#A5A5A5"/>
<rect x="141.42" y="203.56" width="26.16" height="7.56" fill="#FFC000"/>
<rect x="141.42" y="256.08" width="26.16" height="1.60" fill="#8064A2"/>
<text class="xlabel" x="154.50" y="311" text-anchor="middle">1</text>
<rect x="177.75" y="236.87" width="26.16" height="8.33" fill="#4472C4"/>
<rect x="177.75" y="245.20" width="26.16" height="5.87" fill="#ED7D31"/>
<rect x="177.75" y="228.22" width="26.16" height="8.64" fill="#70AD47"/>
<rect x="177.75" y="213.59" width="26.16" height="14.64" fill="#A5A5A5"/>
<rect x="177.75" y="206.12" width="26.16" height="7.47" fill="#FFC000"/>
<rect x="177.75" y="251.07" width="26.16" height="0.70" fill="#8064A2"/>
<text class="xlabel" x="190.83" y="311" text-anchor="middle">2</text>
<rect x="214.09" y="232.78" width="26.16" height="12.42" fill="#4472C4"/>
<rect x="214.09" y="245.20" width="26.16" height="11.81" fill="#ED7D31"/>
<rect x="214.09" y="224.68" width="26.16" height="8.10" fill="#70AD47"/>
<rect x="214.09" y="207.96" width="26.16" height="16.72" fill="#A5A5A5"/>
<rect x="214.09" y="200.65" width="26.16" height="7.31" fill="#FFC000"/>
<rect x="214.09" y="257.01" width="26.16" height="1.08" fill="#8064A2"/>
<text class="xlabel" x="227.17" y="311" text-anchor="middle">3</text>
<rect x="250.42" y="233.41" width="26.16" height="11.79" fill="#4472C4"/>
<rect x="250.42" y="245.20" width="26.16" height="11.82" fill="#ED7D31"/>
<rect x="250.42" y="225.22" width="26.16" height="8.19" fill="#70AD47"/>
<rect x="250.42" y="208.76" width="26.16" height="16.47" fill="#A5A5A5"/>
<rect x="250.42" y="201.14" width="26.16" height="7.62" fill="#FFC000"/>
<rect x="250.42" y="257.02" width="26.16" height="1.24" fill="#8064A2"/>
<text class="xlabel" x="263.50" y="311" text-anchor="middle">4</text>
<rect x="286.75" y="230.37" width="26.16" height="14.83" fill="#4472C4"/>
<rect x="286.75" y="245.20" width="26.16" height="14.55" fill="#ED7D31"/>
<rect x="286.75" y="221.67" width="26.16" height="8.70" fill="#70AD47"/>
<rect x="286.75" y="206.56" width="26.16" height="15.11" fill="#A5A5A5"/>
<rect x="286.75" y="199.13" width="26.16" height="7.43" fill="#FFC000"/>
<rect x="286.75" y="259.75" width="26.16" height="1.36" fill="#8064A2"/>
<text class="xlabel" x="299.83" y="311" text-anchor="middle">5</text>
<rect x="323.09" y="209.25" width="26.16" height="35.95" fill="#4472C4"/>
<rect x="323.09" y="245.20" width="26.16" height="29.47" fill="#ED7D31"/>
<rect x="323.09" y="196.53" width="26.16" height="12.72" fill="#70AD47"/>
<rect x="323.09" y="181.76" width="26.16" height="14.77" fill="#A5A5A5"/>
<rect x="323.09" y="171.13" width="26.16" height="10.62" fill="#FFC000"/>
<rect x="323.09" y="274.67" width="26.16" height="1.84" fill="#8064A2"/>
<text class="xlabel" x="336.17" y="311" text-anchor="middle">6</text>
<rect x="359.42" y="211.92" width="26.16" height="33.28" fill="#4472C4"/>
<rect x="359.42" y="245.20" width="26.16" height="11.58" fill="#ED7D31"/>
<rect x="359.42" y="197.36" width="26.16" height="14.56" fill="#70AD47"/>
<rect x="359.42" y="182.73" width="26.16" height="14.63" fill="#A5A5A5"/>
<rect x="359.42" y="175.33" width="26.16" height="7.40" fill="#FFC000"/>
<rect x="359.42" y="256.78" width="26.16" height="2.35" fill="#8064A2"/>
<text class="xlabel" x="372.50" y="311" text-anchor="middle">7</text>
<rect x="395.75" y="195.46" width="26.16" height="49.74" fill="#4472C4"/>
<rect x="395.75" y="245.20" width="26.16" height="24.57" fill="#ED7D31"/>
<rect x="395.75" y="171.33" width="26.16" height="24.13" fill="#70AD47"/>
<rect x="395.75" y="149.11" width="26.16" height="22.23" fill="#A5A5A5"/>
<rect x="395.75" y="136.96" width="26.16" height="12.14" fill="#FFC000"/>
<rect x="395.75" y="269.77" width="26.16" height="0.70" fill="#8064A2"/>
<text class="xlabel" x="408.83" y="311" text-anchor="middle">8</text>
<rect x="432.09" y="221.66" width="26.16" height="23.54" fill="#4472C4"/>
<rect x="432.09" y="245.20" width="26.16" height="9.94" fill="#ED7D31"/>
<rect x="432.09" y="195.96" width="26.16" height="25.70" fill="#70AD47"/>
<rect x="432.09" y="181.62" width="26.16" height="14.34" fill="#A5A5A5"/>
<rect x="432.09" y="170.44" width="26.16" height="11.18" fill="#FFC000"/>
<rect x="432.09" y="168.82" width="26.16" height="1.62" fill="#8064A2"/>
<text class="xlabel" x="445.17" y="311" text-anchor="middle">9</text>
<rect x="468.42" y="236.13" width="26.16" height="9.07" fill="#4472C4"/>
<rect x="468.42" y="245.20" width="26.16" height="9.08" fill="#ED7D31"/>
<rect x="468.42" y="215.83" width="26.16" height="20.31" fill="#70AD47"/>
<rect x="468.42" y="211.97" width="26.16" height="3.85" fill="#A5A5A5"/>
<rect x="468.42" y="200.32" width="26.16" height="11.65" fill="#FFC000"/>
<rect x="468.42" y="197.10" width="26.16" height="3.22" fill="#8064A2"/>
<text class="xlabel" x="481.50" y="311" text-anchor="middle">10</text>
<rect x="504.75" y="245.20" width="26.16" height="10.52" fill="#4472C4"/>
<rect x="504.75" y="255.72" width="26.16" height="1.96" fill="#ED7D31"/>
<rect x="504.75" y="230.67" width="26.16" height="14.53" fill="#70AD47"/>
<rect x="504.75" y="229.18" width="26.16" height="1.50" fill="#A5A5A5"/>
<rect x="504.75" y="220.22" width="26.16" height="8.96" fill="#FFC000"/>
<rect x="504.75" y="215.37" width="26.16" height="4.85" fill="#8064A2"/>
<text class="xlabel" x="517.83" y="311" text-anchor="middle">11</text>
<rect x="541.09" y="245.20" width="26.16" height="14.23" fill="#4472C4"/>
<rect x="541.09" y="235.45" width="26.16" height="9.75" fill="#ED7D31"/>
<rect x="541.09" y="222.65" width="26.16" height="12.80" fill="#70AD47"/>
<rect x="541.09" y="221.94" width="26.16" height="0.71" fill="#A5A5A5"/>
<rect x="541.09" y="213.76" width="26.16" height="8.18" fill="#FFC000"/>
<rect x="541.09" y="212.47" width="26.16" height="1.29" fill="#8064A2"/>
<text class="xlabel" x="554.17" y="311" text-anchor="middle">12</text>
<rect x="577.42" y="245.20" width="26.16" height="14.63" fill="#4472C4"/>
<rect x="577.42" y="240.05" width="26.16" height="5.15" fill="#ED7D31"/>
<rect x="577.42" y="228.47" width="26.16" height="11.58" fill="#70AD47"/>
<rect x="577.42" y="228.02" width="26.16" height="0.70" fill="#A5A5A5"/>
<rect x="577.42" y="218.78" width="26.16" height="9.24" fill="#FFC000"/>
<rect x="577.42" y="217.61" width="26.16" height="1.17" fill="#8064A2"/>
<text class="xlabel" x="590.50" y="311" text-anchor="middle">13</text>
<rect x="613.75" y="245.20" width="26.16" height="10.06" fill="#4472C4"/>
<rect x="613.75" y="255.26" width="26.16" height="3.70" fill="#ED7D31"/>
<rect x="613.75" y="233.12" width="26.16" height="12.08" fill="#70AD47"/>
<rect x="613.75" y="232.70" width="26.16" height="0.70" fill="#A5A5A5"/>
<rect x="613.75" y="220.14" width="26.16" height="12.56" fill="#FFC000"/>
<rect x="613.75" y="219.44" width="26.16" height="0.70" fill="#8064A2"/>
<text class="xlabel" x="626.83" y="311" text-anchor="middle">14</text>
<rect x="650.09" y="245.20" width="26.16" height="5.52" fill="#4472C4"/>
<rect x="650.09" y="250.72" width="26.16" height="1.44" fill="#ED7D31"/>
<rect x="650.09" y="226.07" width="26.16" height="19.13" fill="#70AD47"/>
<rect x="650.09" y="224.34" width="26.16" height="1.73" fill="#A5A5A5"/>
<rect x="650.09" y="212.88" width="26.16" height="11.46" fill="#FFC000"/>
<rect x="650.09" y="210.00" width="26.16" height="2.88" fill="#8064A2"/>
<text class="xlabel" x="663.17" y="311" text-anchor="middle">15</text>
<rect x="686.42" y="243.22" width="26.16" height="1.98" fill="#4472C4"/>
<rect x="686.42" y="242.05" width="26.16" height="1.17" fill="#ED7D31"/>
<rect x="686.42" y="217.16" width="26.16" height="24.88" fill="#70AD47"/>
<rect x="686.42" y="209.94" width="26.16" height="7.23" fill="#A5A5A5"/>
<rect x="686.42" y="198.09" width="26.16" height="11.85" fill="#FFC000"/>
<rect x="686.42" y="197.61" width="26.16" height="0.70" fill="#8064A2"/>
<text class="xlabel" x="699.50" y="311" text-anchor="middle">16</text>
<rect x="722.75" y="238.29" width="26.16" height="6.91" fill="#4472C4"/>
<rect x="722.75" y="231.88" width="26.16" height="6.41" fill="#ED7D31"/>
<rect x="722.75" y="205.22" width="26.16" height="26.67" fill="#70AD47"/>
<rect x="722.75" y="189.77" width="26.16" height="15.45" fill="#A5A5A5"/>
<rect x="722.75" y="176.23" width="26.16" height="13.54" fill="#FFC000"/>
<rect x="722.75" y="245.20" width="26.16" height="0.70" fill="#8064A2"/>
<text class="xlabel" x="735.83" y="311" text-anchor="middle">17</text>
<rect x="759.09" y="219.28" width="26.16" height="25.92" fill="#4472C4"/>
<rect x="759.09" y="192.25" width="26.16" height="27.03" fill="#ED7D31"/>
<rect x="759.09" y="177.93" width="26.16" height="14.31" fill="#70AD47"/>
<rect x="759.09" y="167.93" width="26.16" height="10.00" fill="#A5A5A5"/>
<rect x="759.09" y="160.14" width="26.16" height="7.79" fill="#FFC000"/>
<rect x="759.09" y="245.20" width="26.16" height="1.94" fill="#8064A2"/>
<text class="xlabel" x="772.17" y="311" text-anchor="middle">18</text>
<rect x="795.42" y="199.30" width="26.16" height="45.90" fill="#4472C4"/>
<rect x="795.42" y="175.65" width="26.16" height="23.65" fill="#ED7D31"/>
<rect x="795.42" y="160.49" width="26.16" height="15.15" fill="#70AD47"/>
<rect x="795.42" y="154.78" width="26.16" height="5.72" fill="#A5A5A5"/>
<rect x="795.42" y="147.55" width="26.16" height="7.22" fill="#FFC000"/>
<rect x="795.42" y="245.20" width="26.16" height="3.14" fill="#8064A2"/>
<text class="xlabel" x="808.50" y="311" text-anchor="middle">19</text>
<rect x="831.75" y="182.59" width="26.16" height="62.61" fill="#4472C4"/>
<rect x="831.75" y="167.78" width="26.16" height="14.81" fill="#ED7D31"/>
<rect x="831.75" y="154.34" width="26.16" height="13.44" fill="#70AD47"/>
<rect x="831.75" y="150.09" width="26.16" height="4.25" fill="#A5A5A5"/>
<rect x="831.75" y="142.69" width="26.16" height="7.40" fill="#FFC000"/>
<rect x="831.75" y="245.20" width="26.16" height="3.13" fill="#8064A2"/>
<text class="xlabel" x="844.83" y="311" text-anchor="middle">20</text>
<rect x="868.09" y="199.45" width="26.16" height="45.75" fill="#4472C4"/>
<rect x="868.09" y="169.29" width="26.16" height="30.15" fill="#ED7D31"/>
<rect x="868.09" y="160.43" width="26.16" height="8.86" fill="#70AD47"/>
<rect x="868.09" y="157.24" width="26.16" height="3.19" fill="#A5A5A5"/>
<rect x="868.09" y="149.11" width="26.16" height="8.13" fill="#FFC000"/>
<rect x="868.09" y="245.20" width="26.16" height="3.19" fill="#8064A2"/>
<text class="xlabel" x="881.17" y="311" text-anchor="middle">21</text>
<rect x="904.42" y="214.09" width="26.16" height="31.11" fill="#4472C4"/>
<rect x="904.42" y="197.99" width="26.16" height="16.10" fill="#ED7D31"/>
<rect x="904.42" y="191.69" width="26.16" height="6.30" fill="#70AD47"/>
<rect x="904.42" y="187.06" width="26.16" height="4.63" fill="#A5A5A5"/>
<rect x="904.42" y="179.44" width="26.16" height="7.62" fill="#FFC000"/>
<rect x="904.42" y="245.20" width="26.16" height="2.39" fill="#8064A2"/>
<text class="xlabel" x="917.50" y="311" text-anchor="middle">22</text>
<rect x="940.75" y="232.42" width="26.16" height="12.78" fill="#4472C4"/>
<rect x="940.75" y="222.19" width="26.16" height="10.22" fill="#ED7D31"/>
<rect x="940.75" y="213.39" width="26.16" height="8.80" fill="#70AD47"/>
<rect x="940.75" y="206.97" width="26.16" height="6.42" fill="#A5A5A5"/>
<rect x="940.75" y="201.86" width="26.16" height="5.11" fill="#FFC000"/>
<rect x="940.75" y="245.20" width="26.16" height="2.50" fill="#8064A2"/>
<text class="xlabel" x="953.83" y="311" text-anchor="middle">23</text>
<rect x="100.0" y="364" width="14" height="14" fill="#4472C4"/>
<text class="legend" x="120.0" y="376">DA电能</text>
<rect x="245.3" y="364" width="14" height="14" fill="#ED7D31"/>
<text class="legend" x="265.3" y="376">ID电能</text>
<rect x="390.7" y="364" width="14" height="14" fill="#70AD47"/>
<text class="legend" x="410.7" y="376">aFRR容量上调</text>
<rect x="536.0" y="364" width="14" height="14" fill="#A5A5A5"/>
<text class="legend" x="556.0" y="376">aFRR容量下调</text>
<rect x="681.3" y="364" width="14" height="14" fill="#FFC000"/>
<text class="legend" x="701.3" y="376">aFRR激活上调</text>
<rect x="826.7" y="364" width="14" height="14" fill="#8064A2"/>
<text class="legend" x="846.7" y="376">aFRR激活下调</text>
</svg>